<?xml version="1.0" encoding="utf-8"?>
<!-- Generator: Adobe Illustrator 21.0.0, SVG Export Plug-In . SVG Version: 6.00 Build 0)  -->
<svg version="1.1" id="Layer_1" xmlns="http://www.w3.org/2000/svg" xmlns:xlink="http://www.w3.org/1999/xlink" x="0px" y="0px"
	 viewBox="0 0 245 51.2" style="enable-background:new 0 0 245 51.2;" xml:space="preserve">
<style type="text/css">
	.st0{fill:#723FE4;}
</style>
<g>
	<g>
		<path class="st0" d="M4.7,13.8C-0.8,24.4,3.4,37.4,14,42.9c10.6,5.5,23.6,1.3,29.1-9.3l-7-3.6c-3.5,6.8-11.8,9.4-18.5,5.9
			c-6.8-3.5-9.4-11.8-5.9-18.5c3.5-6.8,11.8-9.4,18.5-5.9c2.9,1.5,5.1,4,6.3,6.8l7.2-3.1c-1.9-4.4-5.3-8.3-9.9-10.6
			C23.2-1,10.2,3.2,4.7,13.8z"/>
		<path class="st0" d="M36.2,30l-12.2-6.3l12.6-5.5C38.1,21.9,38.1,26.2,36.2,30z"/>
	</g>
	<path class="st0" d="M43.6,25.7L43.6,25.7C43.6,25.7,43.6,25.7,43.6,25.7L43.6,25.7z"/>
	<g>
		<path d="M75.9,4.7h-9.3l-11.7,34h7.7l2.5-7.8h12.3l2.5,7.8h7.7L75.9,4.7z M66.9,25.3l4.2-12.9h0.3l4.2,12.9H66.9z"/>
		<path d="M101.8,48.6c-2.3,0-4.3-0.3-5.9-0.9c-1.6-0.6-2.9-1.5-3.9-2.5s-1.6-2.2-1.9-3.5l6.5-0.9c0.2,0.5,0.5,0.9,0.9,1.3
			c0.4,0.4,1,0.8,1.7,1c0.7,0.3,1.6,0.4,2.6,0.4c1.5,0,2.8-0.4,3.8-1.1c1-0.7,1.5-1.9,1.5-3.6v-4.7H107c-0.3,0.7-0.8,1.4-1.4,2
			c-0.6,0.6-1.4,1.1-2.4,1.5c-1,0.4-2.1,0.6-3.5,0.6c-1.9,0-3.7-0.4-5.2-1.3c-1.6-0.9-2.8-2.3-3.7-4.1c-0.9-1.8-1.4-4.2-1.4-7
			c0-2.9,0.5-5.3,1.4-7.2c0.9-1.9,2.2-3.4,3.8-4.3c1.6-1,3.3-1.4,5.2-1.4c1.4,0,2.6,0.2,3.6,0.7c1,0.5,1.7,1.1,2.3,1.8
			c0.6,0.7,1,1.4,1.4,2.1h0.3v-4.3h7v25.7c0,2.1-0.5,3.9-1.6,5.3c-1.1,1.4-2.5,2.5-4.4,3.2C106.4,48.2,104.3,48.6,101.8,48.6z
			 M102,33c1.1,0,2.1-0.3,2.9-0.9c0.8-0.6,1.4-1.4,1.8-2.5s0.6-2.3,0.6-3.8s-0.2-2.8-0.6-3.9s-1-2-1.8-2.6s-1.8-0.9-2.9-0.9
			c-1.2,0-2.1,0.3-2.9,0.9c-0.8,0.6-1.4,1.5-1.8,2.6c-0.4,1.1-0.6,2.4-0.6,3.8c0,1.5,0.2,2.7,0.6,3.8s1,1.9,1.8,2.5
			C99.8,32.7,100.8,33,102,33z"/>
		<path d="M143.2,27.7v-1.9c0-2.2-0.3-4.1-0.9-5.7c-0.6-1.6-1.5-3-2.5-4c-1.1-1.1-2.4-1.9-3.8-2.4c-1.5-0.5-3-0.8-4.7-0.8
			c-2.5,0-4.7,0.5-6.5,1.7c-1.8,1.1-3.3,2.7-4.3,4.6c-1,2-1.5,4.3-1.5,6.9c0,2.7,0.5,5,1.5,7c1,2,2.5,3.5,4.4,4.5
			c1.9,1.1,4.1,1.6,6.8,1.6c2.1,0,4-0.3,5.6-1c1.6-0.6,2.9-1.5,4-2.7c1-1.2,1.7-2.5,2-4.1l-6.5-0.4c-0.2,0.6-0.6,1.2-1.1,1.6
			c-0.5,0.4-1,0.8-1.7,1c-0.7,0.2-1.4,0.3-2.2,0.3c-1.2,0-2.2-0.3-3.1-0.8c-0.9-0.5-1.5-1.2-2-2.1c-0.5-0.9-0.7-2-0.7-3.3v0H143.2z
			 M126.6,20.9c0.5-0.8,1.1-1.5,1.9-2c0.8-0.5,1.8-0.7,2.8-0.7c1,0,1.9,0.2,2.7,0.7c0.8,0.4,1.4,1.1,1.8,1.8
			c0.4,0.8,0.7,1.7,0.7,2.7h-10.7C125.9,22.5,126.2,21.6,126.6,20.9z"/>
		<path d="M154.9,24v14.7h-7.1V13.2h6.7v4.5h0.3c0.6-1.5,1.5-2.7,2.8-3.5c1.3-0.9,2.9-1.3,4.8-1.3c1.8,0,3.3,0.4,4.6,1.2
			s2.3,1.9,3.1,3.3c0.7,1.4,1.1,3.1,1.1,5.1v16.2h-7.1v-15c0-1.6-0.4-2.8-1.2-3.7c-0.8-0.9-1.9-1.3-3.3-1.3c-1,0-1.8,0.2-2.5,0.6
			c-0.7,0.4-1.3,1-1.7,1.8C155.1,21.9,154.9,22.9,154.9,24z"/>
		<path d="M188.4,39.2c-2.6,0-4.9-0.6-6.7-1.7c-1.9-1.1-3.3-2.7-4.3-4.6c-1-2-1.5-4.3-1.5-6.8c0-2.6,0.5-4.9,1.5-6.9
			c1-2,2.5-3.5,4.3-4.6c1.9-1.1,4.1-1.7,6.7-1.7c2.2,0,4.2,0.4,5.8,1.2c1.7,0.8,3,1.9,4,3.4s1.5,3.2,1.6,5.1h-6.7
			c-0.2-1.3-0.7-2.3-1.5-3.1c-0.8-0.8-1.9-1.2-3.1-1.2c-1.1,0-2,0.3-2.9,0.9c-0.8,0.6-1.4,1.5-1.9,2.6c-0.5,1.1-0.7,2.5-0.7,4.1
			c0,1.6,0.2,3,0.7,4.1s1.1,2,1.9,2.6c0.8,0.6,1.8,0.9,2.9,0.9c0.8,0,1.5-0.2,2.2-0.5s1.2-0.8,1.6-1.5c0.4-0.6,0.7-1.4,0.8-2.3h6.7
			c-0.1,1.9-0.6,3.7-1.6,5.1c-0.9,1.5-2.2,2.6-3.9,3.5C192.7,38.8,190.7,39.2,188.4,39.2z"/>
		<path d="M207.9,9.9c-1.1,0-2-0.4-2.7-1.1c-0.8-0.7-1.1-1.5-1.1-2.5c0-1,0.4-1.8,1.1-2.5c0.8-0.7,1.6-1.1,2.7-1.1
			c1.1,0,2,0.4,2.7,1.1c0.7,0.7,1.1,1.5,1.1,2.5c0,1-0.4,1.8-1.1,2.5C209.9,9.6,209,9.9,207.9,9.9z M204.4,38.7V13.2h7.1v25.5H204.4
			z"/>
		<path d="M228.6,39.2c-2.6,0-4.8-0.6-6.7-1.7s-3.3-2.6-4.3-4.6S216,28.7,216,26c0-2.6,0.5-4.9,1.5-6.9c1-2,2.5-3.5,4.3-4.6
			s4.1-1.7,6.7-1.7c2.6,0,4.8,0.5,6.7,1.7s3.3,2.6,4.3,4.6c1,2,1.5,4.3,1.5,6.9c0,2.6-0.5,4.9-1.5,6.9c-1,2-2.5,3.5-4.3,4.6
			S231.2,39.2,228.6,39.2z M228.6,33.7c1.2,0,2.2-0.3,2.9-1s1.4-1.6,1.8-2.7c0.4-1.2,0.6-2.5,0.6-4s-0.2-2.8-0.6-4
			c-0.4-1.2-1-2.1-1.8-2.8s-1.8-1-2.9-1c-1.2,0-2.2,0.3-3,1s-1.4,1.6-1.8,2.8c-0.4,1.2-0.6,2.5-0.6,4s0.2,2.8,0.6,4
			c0.4,1.2,1,2.1,1.8,2.7S227.4,33.7,228.6,33.7z"/>
	</g>
</g>
</svg>
