<?xml version="1.0" encoding="utf-8"?>
<!-- Generator: Adobe Illustrator 21.0.0, SVG Export Plug-In . SVG Version: 6.00 Build 0)  -->
<svg version="1.1" id="Layer_1" xmlns="http://www.w3.org/2000/svg" xmlns:xlink="http://www.w3.org/1999/xlink" x="0px" y="0px"
	 viewBox="0 0 52.2 44.3" style="enable-background:new 0 0 52.2 44.3;" xml:space="preserve">
<style type="text/css">
	.st0{fill:#723FE4;}
</style>
<g>
	<path class="st0" d="M7.8,12.2c-5.5,10.6-1.3,23.6,9.3,29.1s23.6,1.3,29.1-9.3l-7-3.6c-3.5,6.8-11.8,9.4-18.5,5.9
		c-6.8-3.5-9.4-11.8-5.9-18.5C18.3,9,26.6,6.4,33.3,9.9c2.9,1.5,5.1,4,6.3,6.8l7.2-3.1C44.9,9.2,41.5,5.3,36.9,3
		C26.3-2.6,13.3,1.6,7.8,12.2z"/>
	<path class="st0" d="M39.3,28.4l-12.2-6.3l12.6-5.5C41.2,20.3,41.2,24.6,39.3,28.4z"/>
</g>
</svg>
